<svg xmlns="http://www.w3.org/2000/svg" id="Layer_1" data-name="Layer 1" viewBox="0 0 793.09 800.87" style="width: 140px; height: 140px;">
                      <defs>
                        <style>
                          .cls-1 {
                            fill: none;
                          }
                          .cls-2 {
                            fill: #fff;
                          }
                          .cls-3 {
                            fill: #bf9b30;
                          }
                        </style>
                      </defs>
                      <path class="cls-3" d="M681.99,360.06l-.04.04v-.08l.04.04Z"/>
                      <path class="cls-3" d="M681.99,360.06l-.04.04v-.08l.04.04Z"/>
                      <g>
                        <path class="cls-3" d="M373.72,367.7l-.04.04v-.08l.04.04Z"/>
                        <g>
                          <path class="cls-3" d="M161.91,255.19l-25.74,42.43-40.86-24.79-5.22,1.52-1.12-5.36-40.87-24.79,25.53-42.1,16.26,9.86-15.68,25.84,19.62,11.9,13.5-22.25,16.31,9.9-13.49,22.25,19.62,11.9,15.88-26.19,16.25,9.87Z"/>
                          <path class="cls-3" d="M135.49,158.45l-20.2,22.39,17.03,15.38,17.39-19.27,14.17,12.78-17.39,19.27,31.15,28.12-12.78,14.16-35.48-32.01-5.36.45-.14-5.42-35.48-32.01,32.99-36.56,14.12,12.74Z"/>
                          <path class="cls-3" d="M189.84,114.74l-24.02,18.24,13.87,18.28,20.68-15.71,11.54,15.2-20.68,15.7,25.38,33.42-15.2,11.54-28.91-38.07-5.35-.54.88-5.36-28.91-38.07,39.21-29.78,11.5,15.15Z"/>
                          <path class="cls-3" d="M266.07,126.45l16.02,34.43-17.48,8.13-16.07-34.53-48.07-49.22,17.71-8.24,27.96,29.3-4.6-40.17,18.31-8.52,6.22,68.84Z"/>
                          <path class="cls-3" d="M386.43,137.21l-49.32,5.58-5.38-47.49-4.39-3.2,3.56-4.17-5.39-47.49,48.93-5.54,2.13,18.89-30.03,3.41,2.58,22.8,25.86-2.92,2.15,18.96-25.87,2.93,2.59,22.8,30.42-3.45,2.14,18.9Z"/>
                          <path class="cls-3" d="M456.39,143.03l-20.61-2.11-9.23-29.74-15.1,27.26-20.54-2.09,27.8-50.42-16.19-51.94,20.54,2.09,8.41,26.83,13.65-24.58,20.61,2.1-26.41,47.59,17.07,55Z"/>
                          <path class="cls-3" d="M520.24,153.62l-15.1,6.15-33.46-11.59-7.94-14.13,12.13-35-2.58-4.77,5.01-2.22,12.1-34.94,15-6.26,33.45,11.59,8.05,14.24-12.11,34.94,2.5,4.82-4.92,2.19-12.12,35ZM514.34,112.37l-2.58-4.77,5-2.22,9.42-27.2-20.5-7.1-9.42,27.2,2.56,4.83-4.99,2.16-9.42,27.2,20.51,7.1,9.42-27.2Z"/>
                          <path class="cls-3" d="M613.05,124.16l-16.08-9.92-15.11,24.5,1.38,5.25-5.27,1.06-25.09,40.68-16.24-10.02,25.1-40.67-1.47-5.23,5.36-1.08,15.11-24.5-16.07-9.91,9.99-16.18,48.38,29.84-9.98,16.18Z"/>
                          <path class="cls-3" d="M587.18,212.45l-14.54-12.36,30.95-36.43-.67-5.39,5.47-.26,30.95-36.43,14.54,12.36-30.95,36.43.58,5.4-5.38.25-30.95,36.43Z"/>
                          <path class="cls-3" d="M638.63,252.58l-16.28-2.4-22.16-25.65.2-16.21,28.03-24.22.17-5.43,5.44.58,27.98-24.18,16.12,2.11,22.16,25.65-.09,16.54-12.01,10.37-12.43-14.39,5.86-5.05-13.38-15.48-21.78,18.82-.21,5.47-5.4-.63-21.79,18.82,13.38,15.48,6.3-5.45,12.43,14.39-12.56,10.85Z"/>
                          <path class="cls-3" d="M669.68,308.43l-15.24-5.53-15.67-28.88,3.61-15.9,14.58-7.92,9.07,16.72-7.32,3.96,9.16,16.89,20.17-10.94-12.38-22.82,3.66-15.93,34.63-18.8,15.36,5.62,15.67,28.88-3.66,15.79-14.07,7.63-9.07-16.72,6.8-3.69-9.16-16.88-20.17,10.95,12.44,22.94-3.72,15.82-34.69,18.82Z"/>
                        </g>
                      </g>
                      <g>
                        <path class="cls-2" d="M274.49,210.49l5.56,4.91v16.66l1.81,1.69-1.81,1.66v16.69l-5.56,4.88h-21.13v-21.57l-1.78-1.66,1.78-1.69v-21.57h21.13ZM271.47,235.41l-1.81-1.66,1.81-1.69v-12.99h-9.5v12.99l1.78,1.69-1.78,1.66v12.99h9.5v-12.99Z"/>
                        <path class="cls-2" d="M292.81,256.98h-8.61v-21.57l-1.81-1.66,1.81-1.69v-21.57h8.61v21.57l1.78,1.69-1.78,1.66v21.57Z"/>
                        <path class="cls-2" d="M322.76,252.13l-5.47,4.85h-14.83l-5.53-4.85v-7.49h8.58v3.76h8.67v-10.36h-11.72l-5.53-4.88v-17.79l5.53-4.88h14.83l5.47,4.85v7.22h-8.58v-3.49h-8.67v10.36h11.78l5.47,4.88v17.81Z"/>
                        <path class="cls-2" d="M326.9,235.41l-1.81-1.66,1.81-1.69v3.34ZM352.79,236.27l-5.56,4.94h-11.75v15.77h-8.58v-46.49h20.33l5.56,4.91v20.86ZM344.21,232.63v-13.55h-8.73v13.55h8.73Z"/>
                        <path class="cls-2" d="M379.34,256.98h-22.4v-21.57l-1.81-1.66,1.81-1.69v-21.57h22.22v8.58h-13.64v10.36h11.75v8.61h-11.75v10.36h13.82v8.58Z"/>
                        <path class="cls-2" d="M401.41,256.98l-9.38-24.36v24.36h-8.55v-21.57l-1.81-1.66,1.81-1.69v-21.57h9.2l9.41,24.38v-24.38h8.52v21.57l1.81,1.69-1.81,1.66v21.51l.03.06h-9.23Z"/>
                        <path class="cls-2" d="M440.59,252.13l-5.47,4.85h-14.83l-5.53-4.85v-7.49h8.58v3.76h8.67v-10.36h-11.72l-5.53-4.88v-17.79l5.53-4.88h14.83l5.47,4.85v7.22h-8.58v-3.49h-8.67v10.36h11.78l5.47,4.88v17.81Z"/>
                        <path class="cls-2" d="M465.45,256.98l-2.07-10.36h-9l-2.07,10.36h-8.76l9.29-46.49h12.07l9.29,46.49h-8.76ZM461.66,238.04l-2.78-13.91-2.78,13.91h5.56Z"/>
                        <path class="cls-2" d="M478.32,235.41l-1.78-1.66,1.78-1.69v3.34ZM505.99,256.98h-9.2l-7.31-18.94h-2.54v18.94h-8.61v-46.49h20.63l5.47,4.88v17.07l-5.86,5.47,7.43,19.06ZM486.93,229.43h8.91v-10.39h-8.91v10.39Z"/>
                        <path class="cls-2" d="M529.13,239.85v17.13h-8.7v-17.19l-10.3-29.3h8.82l5.86,17.31,5.77-17.31h9.11l-10.56,29.36Z"/>
                      </g>
                      <g>
                        <path class="cls-3" d="M396.52,575.4l.04-.04-.04-.04v.08Z"/>
                        <path class="cls-3" d="M371.95,672.66l-48.3,33.68c44.91-7.57,48.3-33.68,48.3-33.68Z"/>
                        <path class="cls-3" d="M303.12,636.05c-35.3-3.24-60.75-10.02-60.75-10.02,41.86,33.45,117.56,14.91,117.56,14.91,0,0-21.52-1.65-56.81-4.9Z"/>
                        <path class="cls-3" d="M396.52,565.53s14.2-15.53,16.4-65.82c2.21-50.29-15.06-86.77-16.36-95.63l-.04,161.46Z"/>
                        <path class="cls-3" d="M315.2,543.45c-29.06-25.65-55.46-35.96-55.46-35.96l98.37,93.79s-14.47-32.73-42.91-57.83Z"/>
                        <path class="cls-3" d="M439.16,640.94s75.7,18.53,117.56-14.91c0,0-25.45,6.78-60.75,10.02s-56.81,4.9-56.81,4.9Z"/>
                        <path class="cls-3" d="M475.44,706.34l-48.3-33.68s3.39,26.11,48.3,33.68Z"/>
                        <path class="cls-3" d="M483.89,543.45c-28.44,25.1-42.91,57.83-42.91,57.83l98.37-93.79s-26.39,10.31-55.46,35.96Z"/>
                        <path d="M396.53,573.83l.04-.04-.04-.04v.08Z"/>
                        <g>
                          <path class="cls-1" d="M400.62,675.89c4.09.58,7.68,3.43,9.9,6.94,26,40.7,81.43,36.1,81.43,36.1-5.42-41.28-46.19-58.55-46.19-58.55,105.29,9.51,132.38-43.97,132.38-43.97,0,0-20.89-1.44-49.7-4.76-23.51-2.69-66.5,2.81-66.5,2.81,94.1-56.84,94.49-149.18,94.49-149.18-13.29,18.79-50.52,34.73-50.52,34.73-57.73,25.81-87.98,87.94-89.81,91.8,1.33-4.25,24.29-78.47,10.06-140.25-9.47-41.09-29.59-110.71-29.59-110.71l-.04.04c-.86,2.88-20.31,70.4-29.59,110.63-14.23,61.78,8.73,136.01,10.06,140.25-1.83-3.86-32.08-65.99-89.81-91.8,0,0-37.23-15.94-50.52-34.73,0,0,.39,92.35,94.49,149.18,0,0-43-5.5-66.5-2.81-28.81,3.31-49.7,4.76-49.7,4.76,0,0,27.09,53.48,132.38,43.97,0,0-40.77,17.27-46.19,58.55,0,0,55.43,4.6,81.43-36.1,2.22-3.51,5.81-6.35,9.9-6.94l.04.51v63.72c1.35.05,2.7.11,4.05.15v.04c1.34-.04,2.68-.09,4.02-.15v-63.72l.04-.51Z"/>
                          <path class="cls-3" d="M725.39,394.32c-6.19.15-12.38.38-18.56.87-12.41.87-24.79,2.34-37.09,4.41-24.6,4.11-48.86,10.6-72.37,19.36-11.73,4.45-23.24,9.47-34.48,15.05-11.17,5.77-22.19,11.88-32.71,18.83-21.17,13.73-40.63,30.11-58.22,48.41,16.41-19.36,34.98-37.05,55.5-52.29,10.22-7.7,21.02-14.6,32.03-21.17,9.69-5.54,19.57-10.71,29.72-15.42,0,0,0,0,0,0-56.29-62.22-119.87-95.49-188.91-99-1.25-.08-2.53-.11-3.77-.15v-.04c-1.25.04-2.49.08-3.74.15-69.05,3.51-132.62,36.79-188.91,99,0,0,0,0,0,0,10.15,4.72,20.03,9.88,29.72,15.43,11.02,6.56,21.81,13.47,32.03,21.17,20.53,15.24,39.09,32.94,55.5,52.29-17.58-18.3-37.05-34.67-58.22-48.41-10.53-6.94-21.54-13.05-32.71-18.83-11.24-5.58-22.75-10.6-34.48-15.05-23.51-8.75-47.77-15.24-72.37-19.36-12.3-2.07-24.68-3.55-37.09-4.41-6.19-.49-12.38-.72-18.56-.87h-.16c-.08,2.45-.11,4.94-.11,7.43,0,19.51,1.66,38.59,4.83,57.19,2.01.36,3.89.74,5.83,1.17,2.79.58,5.54,1.24,8.26,1.94,5.49,1.3,10.83,2.97,16.21,4.53,10.64,3.41,21.16,7.09,31.4,11.41,10.3,4.17,20.32,8.95,30.19,13.95l14.63,7.82,14.2,8.54c18.61,11.84,36.64,24.57,52.99,39.24,8.5,6.94,16.1,14.88,23.96,22.47,4.02,3.7,7.48,7.98,11.19,11.98l10.94,12.17-11.78-11.35c-3.98-3.72-7.69-7.7-11.97-11.1-8.36-6.97-16.41-14.27-25.31-20.51-17.15-13.29-35.77-24.49-54.72-34.72l-14.41-7.31-14.74-6.56c-9.91-4.15-19.91-8.06-30.1-11.35-10.14-3.44-20.46-6.23-30.8-8.74-5.19-1.1-10.38-2.33-15.58-3.16-2.14-.4-4.34-.76-6.52-1.08,26.07,112.5,108.4,203.73,215.62,242.29,3.21,1.17,6.49,2.26,9.77,3.32,28.84,9.41,59.35,14.99,90.99,16.23v-63.72l-.04-.51c-4.09.58-7.68,3.43-9.9,6.94-26,40.7-81.43,36.1-81.43,36.1,5.42-41.28,46.19-58.55,46.19-58.55-105.29,9.51-132.38-43.97-132.38-43.97,0,0,20.89-1.44,49.7-4.76,23.51-2.69,66.5,2.81,66.5,2.81-94.1-56.84-94.49-149.18-94.49-149.18,13.29,18.79,50.52,34.73,50.52,34.73,57.73,25.81,87.98,87.94,89.81,91.8-1.33-4.25-24.29-78.47-10.06-140.25,9.28-40.23,28.73-107.75,29.59-110.63l.04-.04s20.11,69.62,29.59,110.71c14.23,61.78-8.73,136.01-10.06,140.25,1.83-3.86,32.08-65.99,89.81-91.8,0,0,37.23-15.94,50.52-34.73,0,0-.39,92.35-94.49,149.18,0,0,43-5.5,66.5-2.81,28.81,3.31,49.7,4.76,49.7,4.76,0,0-27.09,53.48-132.38,43.97,0,0,40.78,17.27,46.19,58.55,0,0-55.43,4.6-81.43-36.1-2.22-3.51-5.81-6.35-9.9-6.94l-.04.51v63.72c31.65-1.24,62.14-6.82,90.99-16.23,3.28-1.06,6.56-2.15,9.77-3.32,107.23-38.56,189.55-129.79,215.62-242.29-2.18.32-4.38.68-6.53,1.08-5.2.84-10.38,2.06-15.58,3.16-10.34,2.51-20.66,5.3-30.8,8.74-10.19,3.3-20.19,7.21-30.1,11.35l-14.74,6.56-14.41,7.31c-18.95,10.23-37.57,21.43-54.72,34.72-8.9,6.25-16.95,13.54-25.31,20.51-4.27,3.4-7.99,7.37-11.97,11.1l-11.78,11.35,10.94-12.17c3.71-4.01,7.16-8.28,11.19-11.98,7.86-7.59,15.46-15.53,23.96-22.47,16.35-14.67,34.39-27.4,52.99-39.24l14.2-8.54,14.63-7.82c9.87-5,19.89-9.77,30.19-13.95,10.24-4.31,20.76-8,31.4-11.41,5.37-1.56,10.71-3.23,16.21-4.53,2.72-.71,5.47-1.37,8.26-1.94,1.95-.43,3.83-.81,5.85-1.17,3.17-18.6,4.83-37.69,4.83-57.19,0-2.49-.04-4.98-.11-7.43h-.18Z"/>
                          <path class="cls-3" d="M755.59,378.45v-.14s-.03-.33-.03-.33c-.12-2.42-.38-4.81-.57-7.23h-.12c-6.9.04-12.82.39-19.26.94,0,0,0,0,0,0h-.22c-6.74.55-13.41,1.25-20.04,2.18-13.29,1.75-26.43,4.17-39.41,7.17-21.01,4.83-41.59,11.34-61.51,19.37,0,0-.01,0-.02,0,0,0,0,0,0,0-62.84-71.45-134.56-109.69-213.19-113.59-1.56-.08-3.12-.16-4.68-.2v-.04c-1.56.04-3.16.12-4.72.19-78.63,3.9-150.35,42.14-213.19,113.59,0,0,0,0,0,0h0c-19.92-8.03-40.5-14.54-61.51-19.38-12.98-3-26.12-5.42-39.41-7.17-6.63-.94-13.29-1.64-20.04-2.18h-.21s0,0,0,0c-6.43-.55-12.36-.9-19.26-.94h-.12c-.18,2.31-.41,4.59-.54,6.89l-.07.68v.28c-.33,6.3-.48,12.64-.48,19.01,0,200.4,160.37,364.01,359.52,369.27v.04c199.16-5.22,359.56-168.87,359.56-369.27,0-6.42-.15-12.81-.5-19.15ZM396.53,759.16v-.04c-192.76-5.09-347.98-163.44-347.98-357.41,0-6.17.15-12.3.48-18.4v-.27s.07-.89.07-.89c.13-2.15.34-4.28.5-6.43h.11c6.68.04,12.41.38,18.64.91,0,0,0,0,0,0h.2c6.53.53,12.98,1.21,19.39,2.11,12.87,1.7,25.58,4.04,38.14,6.94,20.34,4.68,40.26,10.98,59.54,18.75,0,0,0,0,0,0,0,0,0,0,0,0,60.82-69.16,130.24-106.17,206.34-109.94,1.51-.08,3.06-.15,4.57-.19v.04c1.51.04,3.02.11,4.53.19,76.1,3.77,145.52,40.79,206.34,109.94,0,0,0,0,0,0,0,0,0,0,.01,0,19.28-7.77,39.2-14.07,59.54-18.75,12.56-2.91,25.28-5.24,38.14-6.94,6.41-.91,12.87-1.58,19.39-2.11h.21s0,0,0,0c6.23-.53,11.96-.87,18.64-.91h.11c.18,2.31.41,4.58.54,6.88l.04.44v.13c.33,6.14.48,12.32.48,18.54,0,193.97-155.26,352.36-348.02,357.41Z"/>
                          <path d="M396.56,740.22c-1.35-.04-2.7-.09-4.05-.15v14c0,2.26,1.75,3.98,4.02,4.05v.04c2.26-.04,4.05-1.79,4.05-4.05v-14c-1.34.05-2.67.11-4.02.15v-.04Z"/>
                        </g>
                      </g>
                    </svg>